REM DIRINDEX 1\2,1\3,1\4,1\5
REM DIRNAME folder01,folder02,folder03,folder04,folder05
TITLE ""
FILE "1800_056.mp3" MP3
  TRACK 01 AUDIO
    TITLE "2:cjc044_1349"
    INDEX 01 00:00:00
  TRACK 02 AUDIO
    TITLE "0:"
    INDEX 01 00:00:72
  TRACK 03 AUDIO
    TITLE "3:cjc044_1350"
    INDEX 01 00:01:60
  TRACK 04 AUDIO
    TITLE "0:"
    INDEX 01 00:02:55
  TRACK 05 AUDIO
    TITLE "4:cjc044_1351"
    INDEX 01 00:03:41
  TRACK 06 AUDIO
    TITLE "0:"
    INDEX 01 00:04:31
  TRACK 07 AUDIO
    TITLE "5:cjc044_1352"
    INDEX 01 00:05:26
  TRACK 08 AUDIO
    TITLE "0:"
    INDEX 01 00:08:21
  TRACK 09 AUDIO
    TITLE "2:cjc044_1353"
    INDEX 01 00:10:14
  TRACK 10 AUDIO
    TITLE "0:"
    INDEX 01 00:11:11
  TRACK 11 AUDIO
    TITLE "3:cjc044_1354"
    INDEX 01 00:12:01
  TRACK 12 AUDIO
    TITLE "0:"
    INDEX 01 00:13:10
  TRACK 13 AUDIO
    TITLE "4:cjc044_1355"
    INDEX 01 00:13:65
  TRACK 14 AUDIO
    TITLE "0:"
    INDEX 01 00:14:66
  TRACK 15 AUDIO
    TITLE "5:cjc044_1356"
    INDEX 01 00:15:34
  TRACK 16 AUDIO
    TITLE "0:"
    INDEX 01 00:18:44
  TRACK 17 AUDIO
    TITLE "2:cjc044_1357"
    INDEX 01 00:20:32
  TRACK 18 AUDIO
    TITLE "0:"
    INDEX 01 00:21:35
  TRACK 19 AUDIO
    TITLE "3:cjc044_1358"
    INDEX 01 00:22:23
  TRACK 20 AUDIO
    TITLE "0:"
    INDEX 01 00:23:28
  TRACK 21 AUDIO
    TITLE "4:cjc044_1359"
    INDEX 01 00:24:10
  TRACK 22 AUDIO
    TITLE "0:"
    INDEX 01 00:25:15
  TRACK 23 AUDIO
    TITLE "5:cjc044_1360"
    INDEX 01 00:25:72
  TRACK 24 AUDIO
    TITLE "0:"
    INDEX 01 00:29:25
  TRACK 25 AUDIO
    TITLE "2:cjc044_1361"
    INDEX 01 00:31:12
  TRACK 26 AUDIO
    TITLE "0:"
    INDEX 01 00:32:23
  TRACK 27 AUDIO
    TITLE "3:cjc044_1362"
    INDEX 01 00:33:03
  TRACK 28 AUDIO
    TITLE "0:"
    INDEX 01 00:33:73
  TRACK 29 AUDIO
    TITLE "4:cjc044_1363"
    INDEX 01 00:34:55
  TRACK 30 AUDIO
    TITLE "0:"
    INDEX 01 00:35:66
  TRACK 31 AUDIO
    TITLE "5:cjc044_1364"
    INDEX 01 00:36:40
  TRACK 32 AUDIO
    TITLE "0:"
    INDEX 01 00:39:29
  TRACK 33 AUDIO
    TITLE "2:cjc044_1365"
    INDEX 01 00:41:08
  TRACK 34 AUDIO
    TITLE "0:"
    INDEX 01 00:42:08
  TRACK 35 AUDIO
    TITLE "3:cjc044_1366"
    INDEX 01 00:42:70
  TRACK 36 AUDIO
    TITLE "0:"
    INDEX 01 00:44:67
  TRACK 37 AUDIO
    TITLE "4:cjc044_1367"
    INDEX 01 00:45:47
  TRACK 38 AUDIO
    TITLE "0:"
    INDEX 01 00:46:47
  TRACK 39 AUDIO
    TITLE "5:cjc044_1368"
    INDEX 01 00:47:21
  TRACK 40 AUDIO
    TITLE "0:"
    INDEX 01 00:51:44
  TRACK 41 AUDIO
    TITLE "2:cjc044_1369"
    INDEX 01 00:53:29
  TRACK 42 AUDIO
    TITLE "0:"
    INDEX 01 00:54:50
  TRACK 43 AUDIO
    TITLE "3:cjc044_1370"
    INDEX 01 00:55:34
  TRACK 44 AUDIO
    TITLE "0:"
    INDEX 01 00:56:47
  TRACK 45 AUDIO
    TITLE "4:cjc044_1371"
    INDEX 01 00:57:23
  TRACK 46 AUDIO
    TITLE "0:"
    INDEX 01 00:58:44
  TRACK 47 AUDIO
    TITLE "5:cjc044_1372"
    INDEX 01 00:59:18
  TRACK 48 AUDIO
    TITLE "0:"
    INDEX 01 01:03:10
  TRACK 49 AUDIO
    TITLE "2:cjc044_1373"
    INDEX 01 01:04:74
  TRACK 50 AUDIO
    TITLE "0:"
    INDEX 01 01:06:16
  TRACK 51 AUDIO
    TITLE "3:cjc044_1374"
    INDEX 01 01:07:02
  TRACK 52 AUDIO
    TITLE "0:"
    INDEX 01 01:08:21
  TRACK 53 AUDIO
    TITLE "4:cjc044_1375"
    INDEX 01 01:09:05
  TRACK 54 AUDIO
    TITLE "0:"
    INDEX 01 01:10:18
  TRACK 55 AUDIO
    TITLE "5:cjc044_1376"
    INDEX 01 01:11:00
  TRACK 56 AUDIO
    TITLE "0:"
    INDEX 01 01:14:49
  TRACK 57 AUDIO
    TITLE "2:cjc044_1377"
    INDEX 01 01:16:38
  TRACK 58 AUDIO
    TITLE "0:"
    INDEX 01 01:17:39
  TRACK 59 AUDIO
    TITLE "3:cjc044_1378"
    INDEX 01 01:18:23
  TRACK 60 AUDIO
    TITLE "0:"
    INDEX 01 01:20:06
  TRACK 61 AUDIO
    TITLE "4:cjc044_1379"
    INDEX 01 01:20:67
  TRACK 62 AUDIO
    TITLE "0:"
    INDEX 01 01:21:72
  TRACK 63 AUDIO
    TITLE "5:cjc044_1380"
    INDEX 01 01:22:46
  TRACK 64 AUDIO
    TITLE "0:"
    INDEX 01 01:26:05
